<svg enable-background="new 0 0 512 512" height="180" viewBox="0 0 512 512" width="180" xmlns="http://www.w3.org/2000/svg"><g fill="#c56528"><path d="m192.4 199.8c-3.2 4.3-6.7 8.7-10.9 11.7-5 3.4-10.8 5.2-13 11.4s-2.8 13.2-3.3 19.8c.2.1.3.2.5.2.1-.5.2-1 .4-1.6 4.9-11.6 17-29.1 31.1-31.7-1.3-3.4-3.1-6.4-4.8-9.8z"/><path d="m242.6 204c-2.4 1.9-6.5 1.1-8.3-1.8-.1 0-.2 0-.3 0-8 .7-16.6 3.9-21.8 10.2 8 4.9 12.9 14.3 15.8 23.8 7.1-7.6 13.9-16.5 22.9-20.6-2-4.8-4.4-9.2-8.3-11.6z"/><path d="m233.4 174.1c2 2.6 3.9 5.5 5.4 8.5 2-3.5 4.5-6.7 7.4-9.1-4.2.3-8.5.5-12.8.6z"/><path d="m206.3 345.8c-2.3-5.8-6-12.8-13.3-10.2-6.6 2.3-11.8 8.9-16.3 14-2.8 3.1-5.6 6.4-7.8 10-.7 1.2-1.4 2.4-2 3.7.8 1.3.9 2.6.5 3.8 4 4 7.4 9.1 10.1 13.9 3.4-4.4 7.3-8.5 11.4-12.1 5.4-4.8 13.2-11.8 21-11.7-1-3.8-2.1-7.7-3.6-11.4z"/><path d="m296.9 382.5c-2.2-5-6.8-13.8-13.5-13.4-1.2 1.1-2.7 1.3-4.2.9-6.6 2.5-12.4 9-16.6 13.9-4.4 5.1-8.4 10.6-12.2 16.2 3.9 3.8 7.1 8.8 9.6 13.9 7-11 15.8-20.9 29.5-22.6 3.8-.5 7.3-.3 10.6.3-.8-3.2-1.9-6.4-3.2-9.2z"/><path d="m325.7 352c-1.8-3.7-6.5-13.6-11.8-12.9-6.8.8-13.1 7.2-17.5 11.9-2.4 2.6-4.8 5.2-6.9 8.1 11.9 4.1 18.8 17.7 21.6 30.9 6-8.3 12.3-16.9 20.2-22.8-.9-5.3-3.4-10.9-5.6-15.2z"/><path d="m267.1 349.3c-2.7-3.6-7.4-9.4-12.7-8.6-6.8 1.1-13.3 7.3-17.8 12.1-3.4 3.6-6.6 7.4-9.6 11.3 2.6 2 5 4.3 7.3 6.7 5.1 5.4 8.3 11.5 10.6 18.1 4.3-6.1 8.9-12 14.2-17.2 3.9-3.9 8.8-8.3 14.2-11-1.5-4.1-3.7-8-6.2-11.4z"/><path d="m273 186.1c-3.3-2.8-7.1-6.4-11.7-6.8-7.9-.7-12.8 6.7-15.3 14.1 2.9 1.2 5.6 3.1 7.9 5.7 2.6 3 4.5 6.4 6.1 9.9 2.2-3.3 3.7-7.2 5.8-10.3 2.6-4 6-7.8 10.3-9.9-1-1-2-1.9-3.1-2.7z"/><path d="m353.4 376.2c-.8-2.7-.9-5.4-4.2-5.1-2 .2-3.8.7-5.6 1.6-.8 1.2-1.7 2.4-2.6 3.6-1.5 2-3.5 2.4-5.2 1.8-7.5 6.5-13.2 14.8-19.1 22.8 2.8 2.8 5.3 6.1 7.4 9.8 7-6.8 15.8-10.8 26-12 2.9-.3 6.5-.5 10.1-.3-2.1-7.4-4.6-14.7-6.8-22.2z"/><path d="m164.4 254.7c-.2 4.6-.4 9.2-.7 13.7-.1 1.6-.2 3.2-.3 4.9 7.4 2.5 14.8 7.2 20.5 13.3.3-1.6.8-3.1 1.4-4.6-.3-11.3-10.9-21.3-20.9-27.3z"/><path d="m257.7 288.5c-1.5-5.1-1.4-10.3-2.5-15.4-1.1-5.3-4.2-10.2-8.1-13.8-1.9-1.8-4-3.6-6.2-5-1.9-1.3-3.4-1-5.9-.7-4.6.5-9.4 1.6-13.5 4-6.8 4-12.5 9.4-17.5 15.4-2.7 3.2-6.2 7.3-8.2 11.7-.1 2.3-.5 4.6-1.2 7 8.3-9.2 19.1-16.5 30.4-19 3-.7 5.8.3 7 3.4 4.1 10.5 14 16.8 18.8 26.4 2-2.2 3.8-4.6 5.3-7.1 1-1.6 1.7-3.3 2.4-5.1-.3-.6-.6-1.2-.8-1.8z"/><path d="m205.6 221c-1.5.4-3.3 0-4.6-.8-6 .5-11.1 5.5-14.8 9.9-4.2 4.8-7.8 10.1-10.3 16.1-.4.9-.8 1.5-1.4 2 7.8 5.5 14.7 12.8 18.5 21.1 1-1.3 2-2.5 3-3.6 6.5-7.6 14.1-15.1 23.4-19.2-1.6-7.4-5.7-21.9-13.8-25.5z"/><path d="m222.3 177.8c-1.2-1.2-1.6-2.7-1.6-4.1-2.3-.2-4.7-.4-7-.7-.5 1-1.4 1.9-2.4 2.4-.4 2.2-2 3.6-3.9 4.2-2.9 3.8-5.8 7.6-8.6 11.5 1 .3 2 1.1 2.7 2.4 1.6 3.1 3.3 6 4.6 9 6.6-6.3 16-10.3 24.9-11.2-2.1-4.9-5.2-9.8-8.7-13.5z"/></g><path d="m200.7 155c-2.3-.3-4.2-1.9-4.3-4.8-.1-5.7-2.4-12.3-1-18.1-1.1-6.2-2.2-12.6-3.2-19-16.6-13.9-44.1-14.7-64.1-10.1-18.7 4.3-36.5 11.7-51.2 23.4 18.1-5.4 36.8-7.9 55.9-5.4 12.9 1.7 25.6 4.4 37.2 10.6 5.5 3 12.2 6.5 16.5 11.1 1.9 2.1 3.6 4.2 5.3 6.5 1 1.4 2.4 3.7 4.1 4.2 2.6.8 3.9 2.9 4.1 5.1.2.1.4.2.6.2.1-1.3.1-2.5.1-3.7z" fill="#3ab37c"/><path d="m214.2 68.2c-3.1-8.4-6.6-16.9-9.2-25.5-6.6 20.5-5.5 43.3-2.4 65.1.8 1.3.9 2.8.6 4.1.7 4.5 1.4 9 2.2 13.4 1.4-5.1 3.4-10 6.5-14.1 1.4-2 4.5-2.3 6.6-1.3 2 1 4.1 2 6.2 3 .1-.7.4-1.3.7-1.9-3.7-14.4-6-28.9-11.2-42.8z" fill="#71c598"/><path d="m278 231.5c-4.7-4.6-12.2-9.1-19.1-7.1-9.1 2.7-15.6 10.5-22.1 17.8.7 0 1.5-.1 2.2-.1 5.9-.1 11.5 4.7 15.5 8.8 4.4 4.4 8.3 9.4 10.3 15.3.7 2 1.1 4 1.4 6.1 2.7-3.9 5.4-7.7 8.6-11.2 3.7-4.1 8.4-8.6 13.8-11.3-2.5-6.5-5.6-13.4-10.6-18.3z" fill="#c56528"/><path d="m317.6 225.5c-1.2-.2-2.4 0-3.4.4-.5.4-1.1.7-1.7.9-2.6 1.8-4.5 5-5.9 7.6-2.2 4.2-4 8.7-6 13 16 1.6 24.7 16.4 31.1 30.7 2.6-8.1 4.9-16.3 10.1-23.1.7-1 1.6-1.9 2.4-2.8-6.2-10.6-13.7-25-26.6-26.7z" fill="#c56528"/><path d="m281.4 198.4c-5.1 1.8-7.3 7.7-9.7 12-.7 1.3-1.4 2.5-2.2 3.8 11 2.8 19 11.3 24.5 21.3 2.6-5.7 5.5-11.4 9.5-15.5-5-9.5-11.6-25.4-22.1-21.6z" fill="#c56528"/><path d="m277.6 170.8c-2.2.1-4.4.3-6.7.5 4.7 2.7 8.8 6.8 13.4 10.2 2.5-4.4 6.4-8.1 10.7-10.9-5.9-.4-11.8-.2-17.4.2z" fill="#c56528"/><path d="m315.7 271c-3.9-5.9-10.7-13.9-18.8-12.5-7.2 1.3-13 8.3-17.2 13.7-1.2 1.6-2.4 3.2-3.6 4.9.5.2 1 .5 1.5.8 5.9 3.8 10.9 9.4 15.2 14.9 2.1 2.6 4.3 5.3 5.9 8.2 2.9-9.5 6.1-19.9 15.4-20.8 2.5-.3 4.9.3 7.2 1.4-1.6-3.7-3.4-7.3-5.6-10.6z" fill="#c56528"/><path d="m227 379.1c-2.1-2.2-5.2-5.5-8.6-7.9-1.3-.3-2.6-1-3.6-2.1-1.7-.7-3.4-1.1-5.1-.7-6.1 1.2-12 7.1-16.2 11.4-3.2 3.3-6.5 6.8-9.2 10.6.3.2.5.3.8.5 6.6 4 12.5 11.8 16.3 18.4 1.4 2.4 2.6 4.8 3.7 7.3 2.2-3.4 4.5-6.6 7-9.7 4.8-6 10.7-12.8 18.7-14 1.4-.2 2.7-.2 4.1-.2-1.8-5-4.1-9.8-7.9-13.6z" fill="#c56528"/><path d="m337.4 200.4c-.3-.4-.6-.8-.9-1.3-1.5.6-2.9.3-4.1-.5-5.8 3.6-10.2 9.7-13.2 16 14 1.7 22.8 13.4 30.2 25.1.4-1.2.8-2.4 1.2-3.6 1.1-2.9 2.7-5.3 4.6-7.5.6-1.4 1.6-2.5 3.2-3.1.1-.1.1-.1.2-.2-6.9-8.4-14.6-16.2-21.2-24.9z" fill="#c56528"/><path d="m316.2 176.4c-2.5-1.4-5.1-2.5-7.8-3.4v1.3c0 4.4-4.3 6.4-7.5 5.6-3.6 2.2-6.8 5.6-8.1 9.4 8 3.8 12.3 12 16.9 20.2 4.2-8.7 10.5-16.8 18.8-21.3-3.5-4.7-7.5-8.9-12.3-11.8z" fill="#c56528"/><path d="m423.9 125.6c-11.3-9.5-25.9-14.6-40.5-16.3-15.9-1.9-33.3-1.4-49.1.9-13.8 2-24.5 10.5-36.3 17.1-6.2 3.4-12.4-5.7-6.2-9.1 7.2-4 13.9-8.3 21-11.9.1-1.5.7-2.9 2-4.1 1.6-1.4 2.7-4.5 3.6-6.4 1.6-3.2 3.1-6.5 4.8-9.7 3.5-6.4 8.4-11.9 13.4-17.1 8.6-9.1 18.1-17.3 28.3-24.6-6.8-.1-13.8 1.6-19.9 3.4-10.5 3.2-20.6 7.5-30.2 12.7-10.4 5.7-20.9 12.9-29.2 21.5-3 3.1-5.5 6.3-7.9 9.7.4-.2.8-.4 1.1-.6 3.7-2 8-.2 8.6 4.1 1.8 13-.4 26 3.7 38.6 3.2 9.9 10.2 17.9 15.4 26.7.1.2.2.3.2.5.3.1.6.1.8.2-5.5-6.7 11.1-16 15.1-18.3 12.2-7.1 26.5-12.1 40.2-15 8.7-1.8 17.8-2.5 26.7-2.6 8.1-.2 16.6-.1 24.4 2.1 8 2.2 14.9 6.3 21.4 11-3.3-4.5-7-9.1-11.4-12.8z" fill="#71c598"/><path d="m365.2 234.4c-.4.2-.7.5-1.1.6-2.3 2.3-3.6 5.3-4.6 8.5h.1c3.9-.5 7.3.1 10.6 1.2-1.3-3.5-3-6.9-5-10.3z" fill="#c56528"/><path d="m374 259.9c-.1-.4-.1-.7-.2-1.1-1.6-.3-3-1.2-3.8-2.5-.9-.5-1.8-1-2.8-1.3-2.8-1-5.9-1.1-8.7.1-5.2 2.3-8.8 6.8-11.1 11.9-4.3 9.1-6 19.1-10.6 28.1-.1.3-.3.5-.5.7 2.4 3.3 4.6 6.7 6.6 10.3 3.5-4.9 8-9.2 12.7-12.7 6.3-4.6 14-9.1 22-9.3-1.4-7.9-2.4-15.9-3.6-24.2z" fill="#c56528"/><path d="m246.4 113.1c.1-29.1 4.4-57.9 5.6-86.9-.8 2.4-3.2 3.7-5.5 3.8-4.5 6.2-6.7 15-8.4 21.9-2.6 10.5-5.6 21.6-5.8 32.4 0 1.4-.5 2.5-1.2 3.4 1.9 8.4 3.5 16.9 5.9 25.2.4 1.6.2 3-.4 4.2.2.7.3 1.4.4 2.1 4.6 2.7 8.9 5.7 12.5 9.5 1.2-3.1 2.7-6.1 4.2-9 .5-1 1.1-2 1.6-3-3.1 2.5-8.9 1.6-8.9-3.6z" fill="#3ab37c"/><path d="m280.1 135.8c-3-9.9-2.5-20-2.9-30-5.7 5.2-10.2 12-13.6 18.8-4.9 9.7-9 20.7-9.2 31.8-.1 7-11.1 7.9-11 .8.1-4.8.7-9.5 1.7-14.2-1.7-1.2-2.1-3.1-1.6-4.9-3-4.1-7.4-7.2-12.1-9.8-1.5-.1-2.8-.9-3.8-2-3.2-1.6-6.5-3-9.6-4.4-3 6.4-4.2 15.4-5.1 22-.6 4.8-1.9 12.1-1.2 18 14.5 2.8 29.7 1.4 44.4-.1 11.6-1.2 24.3-2.9 36.5-2.4-4.8-7.6-9.8-14.9-12.5-23.6z" fill="#3ab37c"/><path d="m266.6 40.8c-1.2-2.5-2.6-4.8-4-7.2-1.5 23.9-4.5 47.6-5.1 71.5 1.5-3.8 3.6-7.4 5.8-11 3.4-5.7 6.8-11.3 11.1-16.2-.1-12.3-2.4-26-7.8-37.1z" fill="#3ab37c"/><path d="m290.7 466.5c-1.5-6.4-3.2-13.7-7.5-18.9-4.4-5.3-12-5.5-17.9-2.8-11.1 5.1-16.9 18-23.1 28.2 8.4 2.5 16.6 6.5 22.6 12.9 3.7-3.2 7.2-6.7 11.6-9.2 5-2.8 10.8-5.9 16.5-7.5-1.1-.6-1.9-1.5-2.2-2.7z" fill="#c56528"/><path d="m221.4 465.9c-3-3.5-6.6-8.6-11-10.2-6.8-2.6-14.7-.4-18.3 6 5.1 5.6 10.8 10.8 16.9 15.5 1.7 1.3 3.4 2.5 5.1 3.6 4.2-4 8.5-6.8 13.3-8.1-2-2.3-4-4.5-6-6.8z" fill="#c56528"/><path d="m165.8 337.4c-.8-2.5-1.9-4.5-3.5-6.6-3.7-4.8-9.6-10.9-16.1-11.6.5 3.1 1 6.2 1.8 9.2 2.4 10.1 5.1 20.1 4.8 30.4 1.3.1 2.5.4 3.7.8 2-6.1 7.8-12.4 10.7-15.8.3-.3.6-.6.8-1-1.2-1.5-1.7-3.6-2.2-5.4z" fill="#c56528"/><path d="m259.4 496.8c-4.4-6.5-12-11.1-19.6-13-6.6-1.7-10.9-1.1-15.7 2.7 11.2 5.8 23.3 9.5 35.9 11-.2-.2-.5-.5-.6-.7z" fill="#c56528"/><path d="m162.1 377.8c-2.6-3.1-7.6-9.3-12.3-7.9-1.2.3-2.3.3-3.2 0 3.2 11.4 6.9 23 11.3 34.3 2.6-6 6.8-11.6 12.1-14.3-2.3-4.3-4.9-8.4-7.9-12.1z" fill="#c56528"/><path d="m366.4 411.1s0-.1-.1-.1c-.7-.1-1.3-.4-1.9-.8-2.1-.5-5.3-.9-6.3-.9-3.7-.3-7.6.1-11.2 1-8.7 2.2-14.8 6.7-19.9 14-2.5 3.6-8 1.6-9.3-1.8-1.9-4.7-4.5-9.4-7.9-13.1-3.8 2.7-8.6-1.3-8.4-5.8 0-.1 0-.2 0-.3-3.6-1.5-7.8-1.9-12.4-.6-12.8 3.5-19.1 15.7-25.2 26.4-2.2 3.8-8.7 4.3-10.1-.6-1.5-5.3-5.5-15.8-11.4-21.4-1.9 0-3.6-.9-4.4-3-2.3-1-4.9-1-7.6.2-5.5 2.5-9.9 9.2-13.2 14-3.5 5-6.8 10.3-9.3 15.9-2.2 4.9-10.3 3.4-10.4-2-.3-11.2-7.1-21.8-15.1-29.3-3.1-2.9-6.6-5.3-10.1-1.4-3.3 3.5-5 7.7-5.9 12.4-.4 1.9-1.4 3.1-2.7 3.7 5.9 12.6 12.8 24.6 21.2 35.4 6-7.5 16.2-11.1 25.7-8.7 10.9 2.8 16.8 12.4 24.3 20.1 8-12.9 15.5-27.6 31.4-31.3 8.8-2.1 18.1-.2 24.4 6.6 3.8 4.1 6.3 9.2 8 14.5 8.4-9.9 15.8-22.6 29.7-23.4 8.4-.5 15.8 2.7 20.6 9.7 1.6 2.3 3.9 6.1 4.8 9.7 6.2-9.4 11.5-19.5 15.8-29.7.6-1.5 1.2-2.9 1.8-4.4-2.3-.3-4.6-1.9-4.9-5z" fill="#f6851f"/><path d="m390.5 325.2c-1.1-7-4-13.2-6.6-19.7-1.4-3.4-2.5-6.9-3.5-10.3-13.5-.6-28 13.2-32.5 25-1.4 3.6-7.7 4.2-9.5.6-3.2-6.4-6.6-12.7-10.8-18.4-2-2.8-4.2-5.6-6.8-7.9-.7-.6-4.3-3.6-4.9-3.4-3.1 1.2-5.1 9.4-6.1 12.4-1.6 4.9-2.9 10.3-5.8 14.6-2.7 4.1-8 3.9-10.1-.6-1.6-3.5-2.3-7.8-4.4-11-1.5-2.3-3.3-4.6-5-6.8-3.5-4.4-7.5-9-12.1-12.3-.1-.1-.1-.1-.2-.1-.7.7-1.1 1.7-1.4 2.5-1.2 2.9-2 6-3.6 8.7-4.4 7.1-9.6 13.2-16 18.6-3.2 2.7-8.4-.3-8.6-4.1-.2-6.9-4.4-11.6-8.9-16.5-3.6-3.9-7-7.8-9.5-12.3-12.9 4.6-24.4 15.9-30.2 27.9-2.3 4.8-10.2 3.5-10.4-2-.4-11.4-11.4-21.7-22-25.9-.2.6-.4 1.2-.6 1.7-3.1 8-9.3 11.1-16.4 10.6.1 3.9.2 7.8.5 11.6 8.5.1 16.4 5.2 22 11.3 2.9 3.1 5.6 6.3 7.5 10.1.7 1.4 1.2 2.7 1.7 4.2 3.9-3.8 8.3-7.2 13.2-8.6 10.9-3.2 19.7 1.6 24.8 11.4 3 5.7 4.5 11.8 6.4 17.9 4.4-5.5 9.1-10.8 14.5-15.2 6-5 14.6-10.9 23-9.3 10.6 2.1 18.5 11.4 23.2 21.6 3.4-4.5 7.4-8.7 11.3-12.2 6.1-5.4 15.4-13.1 24.3-11 9.1 2.1 14.7 11.1 18.6 19 1.7 3.5 3.3 7.2 4.6 11 8-13 15.3-26.4 31-31.7 2.4-.8 4.9.1 6.4 2.1 3.9 5.2 10 9.1 13.4 14.4.4-6 .4-12-.5-17.9z" fill="#f6851f"/><path d="m388.4 358.2h-2c-5.3 0-7.1-6.1-4.7-9.2-1.9-4.1-6.4-7.5-10-10.8-9.3 4.4-15.1 13.2-20.4 22.2 5 .5 9.3 3.1 11.5 8.9 3 8.1 5.6 16.3 7.9 24.6.5-.5 1-1 1.5-1.6 2.4-2.4 5.5-4.9 7-8.1.9-1.9 2.4-2.8 4-3 2.3-7.6 4.4-15.3 5.9-23.1-.4.1-.6.1-.7.1z" fill="#c56528"/><path d="m320.3 483.8c-6.7-7.1-17.9-6.6-26.4-3.2-5.1 2.1-10.9 4.3-15.3 7.8-3.9 3.1-7.4 6.8-11.5 9.7.9 0 1.9.1 2.8.1 18.3.5 35.6-4.4 50.6-14.1 0-.1-.1-.2-.2-.3z" fill="#c56528"/><path d="m342.7 451.4c-.5-1.1-1-2.1-1.6-3.1-1-1.6-2.5-4.4-4.4-5.2-4.5-2.1-9.9-1.8-14.3 1.3-8.7 6.2-14.1 16-21.8 23.4 9.7-1.2 19.9.3 26.9 7.8.7.8 1.2 1.7 1.4 2.5.9-.7 1.8-1.4 2.6-2.2 5.8-5.1 11.1-10.8 15.8-16.9-3.4-.5-6-4.5-4.6-7.6z" fill="#c56528"/><path d="m256.1 6.8h4.8c-1.5-.8-3.3-.7-4.8 0z" fill="#010101"/><path d="m457.1 155.9c-3-14.1-14.5-27.9-24.8-37.5-11.8-11-28.1-16.8-43.7-19.4-17.2-2.9-36.1-1.8-53.4.1-2.3.3-4.5.7-6.7 1.2.5-1.1 1-2.1 1.5-3.1 3.2-6.5 6.6-11.7 11.4-17.1 11.8-13.4 25.6-24.6 40.6-33.9 3.4-2.1 3.1-7.9-.6-9.5-11.5-4.9-24-3.4-35.8-.5-12.5 3.1-24.5 8.5-35.9 14.6-8.8 4.7-17.2 10.4-24.8 16.9-1-9.5-3.2-19.1-6.6-27.8-4.1-10.5-12.1-19.2-15.1-30.1-.4-1.5-1.3-2.5-2.3-3.1h-4.8c-2 .9-3.6 2.8-3.6 5.3 0 2.7-.1 5.5-.1 8.2-.8-3.4-5.6-5.6-8.4-3.2-8.6 7.3-12.4 18.2-15.4 28.8-1.5 5.2-2.6 10.5-3.6 15.8-.2.8-.3 1.7-.5 2.5-4.9-13-10.8-26-12-39.9-.5-5.7-7.7-6.6-10.4-2-13.3 22.7-14.4 49.9-11.6 76.2-18.5-10.1-43.4-10.8-62.8-6.6-29.4 6.3-57.2 20-75.8 44.2-3.1 4.1.5 11.1 6 8.8 23.9-10.2 48.7-16.4 74.8-13 12.7 1.6 24.4 4.8 35.5 11.1 5.2 2.9 10.2 6.3 13.8 11.1 2.6 3.5 5 6.6 8.6 8.6-.2 2 .6 4 3.1 5s4.9 1.9 7.4 2.6c-8 10.3-15.4 21.1-24.1 30.8-3.8 4.3-10.1 5.5-14 10-3.7 4.3-5.4 9.4-6.5 14.9-2.9 13.5-2.7 27.7-3.5 41.5-.3 5.2-.5 10.8-2.6 15.6-1.8 4-5.4 3.1-8.8 1.7-4-1.6-7.9 1-7.9 5.4 0 11.9.4 23.7 2.6 35.4 2 10.4 5.8 20.8 5.8 31.4-1.1.1-2.2.2-3.3.2-3.8.3-5.6 3.9-4.8 7.3 10.7 41.8 27.9 84.8 60.4 114.4 33 30.1 83.8 40 124.2 19.4 42.2-21.6 61.1-68.3 74.2-110.9 8-26 14.6-54.2 3.8-80.4-2.9-6.9-5.4-13.8-7.4-20.9-2.3-8.1-2.7-16.8-3.7-25.1-1.5-12.6-5.1-24.3-12.3-34.9-8.4-12.5-19.9-22.9-28.8-35-8.4-11.4-16.5-22.1-29.7-27.5 2.2-.8 3.9-2.7 4.2-4.7 1.4-1.2 3-2.2 4.5-3.2 3.1-2 6.3-3.9 9.5-5.7 5.2-2.9 11.5-4.7 17.1-6.7 7.4-2.7 15-4.8 22.9-5.8 13.3-1.6 27.7-2.4 40.7 1.1 13.3 3.7 23.7 15.6 34.9 23.2 4.5 3.3 9.8-.3 8.6-5.8zm-194.5-122.3c1.4 2.4 2.7 4.7 4 7.2 5.5 11.1 7.7 24.8 7.9 37.1-4.4 5-7.7 10.5-11.1 16.2-2.2 3.6-4.3 7.2-5.8 11 .5-23.9 3.6-47.6 5-71.5zm-30.2 50.7c.1-10.8 3.2-21.9 5.8-32.4 1.7-6.9 3.9-15.7 8.4-21.9 2.3-.1 4.7-1.4 5.5-3.8-1.3 29-5.5 57.8-5.6 86.9 0 5.1 5.8 6.1 8.9 3.5-.6 1-1.1 2-1.6 3-1.5 2.9-2.9 5.9-4.2 9-3.6-3.8-7.9-6.8-12.5-9.5-.1-.7-.3-1.4-.4-2.1.6-1.2.9-2.6.4-4.2-2.3-8.3-4-16.8-5.9-25.2.8-.8 1.2-1.9 1.2-3.3zm-.9 43.9c4.7 2.6 9 5.7 12.1 9.8-.5 1.8-.1 3.7 1.6 4.9-1 4.7-1.6 9.4-1.7 14.2-.1 7.1 10.9 6.2 11-.8.1-11.1 4.3-22 9.2-31.8 3.4-6.8 7.9-13.6 13.6-18.8.4 10.1-.1 20.2 2.9 30 2.7 8.7 7.6 16 12.5 23.4-12.2-.5-24.9 1.2-36.5 2.4-14.7 1.5-29.9 2.9-44.4.1-.7-5.9.6-13.2 1.2-18 .9-6.6 2.1-15.6 5.1-22 3.1 1.4 6.4 2.8 9.6 4.4.9 1.3 2.3 2 3.8 2.2zm7.4 54.4c-1.6-3-3.4-5.8-5.4-8.5 4.3-.1 8.6-.3 12.9-.6-3.1 2.4-5.6 5.6-7.5 9.1zm22.5-3.4c4.6.4 8.4 4 11.7 6.8 1 .9 2 1.7 3 2.6-4.3 2.1-7.7 5.9-10.3 9.9-2.1 3.2-3.6 7.1-5.8 10.3-1.6-3.6-3.5-7-6.1-9.9-2.3-2.6-4.9-4.4-7.9-5.7 2.6-7.3 7.5-14.7 15.4-14zm-27.5 23.1h.3c1.8 2.8 5.9 3.7 8.3 1.8 4 2.4 6.3 6.8 8.3 11.6-9.1 4.2-15.8 13.1-22.9 20.6-2.9-9.4-7.8-18.9-15.8-23.8 5.2-6.3 13.8-9.5 21.8-10.2zm-14.6 44.1c-9.3 4.1-16.9 11.6-23.4 19.2-1 1.2-2 2.4-3 3.6-3.8-8.3-10.7-15.6-18.5-21.1.6-.5 1-1.1 1.4-2 2.5-5.9 6.1-11.2 10.3-16.1 3.7-4.3 8.8-9.4 14.8-9.9 1.4.8 3.1 1.2 4.6.8 8.2 3.7 12.3 18.2 13.8 25.5zm-23.4 38.1c2-4.4 5.6-8.5 8.2-11.7 5-6 10.7-11.4 17.5-15.4 4.1-2.4 8.8-3.5 13.5-4 2.5-.3 4-.6 5.9.7 2.2 1.5 4.2 3.2 6.2 5 3.9 3.6 7 8.6 8.1 13.8 1 5.1 1 10.3 2.5 15.4.2.6.5 1.1.9 1.6-.7 1.7-1.4 3.4-2.4 5.1-1.5 2.5-3.4 4.9-5.3 7.1-4.7-9.6-14.7-15.9-18.8-26.4-1.2-3-4-4-7-3.4-11.3 2.5-22.1 9.9-30.4 19 .6-2.1 1-4.5 1.1-6.8zm58.6-33.5c-4.1-4.1-9.6-8.8-15.5-8.8-.7 0-1.5 0-2.2.1 6.5-7.4 12.9-15.2 22.1-17.8 6.9-2 14.4 2.5 19.1 7.1 5 4.9 8.1 11.8 10.5 18.3-5.3 2.7-10 7.2-13.8 11.3-3.2 3.5-5.9 7.3-8.6 11.2-.3-2-.7-4.1-1.4-6.1-2-5.9-5.9-10.9-10.2-15.3zm25.3 21.2c4.2-5.4 10-12.4 17.2-13.7 8-1.4 14.8 6.6 18.8 12.5 2.2 3.3 4 6.9 5.6 10.6-2.3-1-4.7-1.6-7.2-1.4-9.3.9-12.5 11.3-15.4 20.8-1.7-2.9-3.9-5.6-5.9-8.2-4.3-5.5-9.4-11.1-15.2-14.9-.5-.3-1-.6-1.5-.8 1.1-1.6 2.3-3.3 3.6-4.9zm20.8-24.7c2-4.3 3.8-8.8 6-13 1.4-2.7 3.3-5.9 5.9-7.6.6-.2 1.2-.5 1.7-.9 1-.4 2.2-.6 3.4-.4 12.9 1.6 20.4 16.1 26.7 26.8-.9.9-1.7 1.9-2.4 2.8-5.2 6.8-7.5 15-10.1 23.1-6.4-14.4-15.2-29.1-31.2-30.8zm-6.6-12c-5.5-10-13.5-18.5-24.5-21.3.8-1.2 1.5-2.5 2.2-3.8 2.4-4.4 4.7-10.2 9.7-12 10.4-3.8 17.1 12.1 22.1 21.6-4.1 4-7 9.8-9.5 15.5zm-9.7-54c-4.6-3.4-8.7-7.5-13.4-10.2 2.2-.2 4.4-.3 6.7-.5 5.6-.3 11.5-.6 17.4-.2-4.3 2.7-8.1 6.5-10.7 10.9zm-83.6-22.9c-.2-.1-.4-.2-.6-.2-.2-2.2-1.5-4.3-4.1-5.1-1.8-.5-3.1-2.9-4.1-4.2-1.7-2.2-3.4-4.4-5.3-6.5-4.3-4.6-11.1-8.1-16.5-11.1-11.6-6.2-24.3-9-37.2-10.6-19.1-2.5-37.8 0-55.9 5.4 14.7-11.7 32.5-19 51.2-23.4 20-4.6 47.5-3.8 64.1 10.1 1 6.5 2.1 12.9 3.2 19-1.4 5.8.9 12.4 1 18.1.1 3 2 4.5 4.3 4.8-.1 1.3-.1 2.5-.1 3.7zm4.3-116c2.6 8.7 6.1 17.2 9.2 25.5 5.2 13.9 7.5 28.4 11.1 42.7-.3.6-.6 1.2-.7 1.9-2.1-1-4.1-2-6.2-3s-5.1-.7-6.6 1.3c-3 4.1-5 9-6.5 14.1-.8-4.4-1.5-8.8-2.2-13.4.3-1.3.2-2.8-.6-4.1-3-21.6-4.2-44.5 2.5-65zm2.4 137.1c1.8-.6 3.4-2 3.9-4.2 1-.6 1.9-1.4 2.4-2.4 2.3.3 4.7.6 7 .7 0 1.4.4 2.8 1.6 4.1 3.5 3.7 6.6 8.5 8.7 13.6-8.9.9-18.3 4.9-24.9 11.2-1.4-3-3.1-5.9-4.6-9-.7-1.3-1.6-2.1-2.7-2.4 2.9-4 5.7-7.8 8.6-11.6zm-39 43.1c2.2-6.2 8.1-7.9 13-11.4 4.2-3 7.7-7.3 10.9-11.7 1.7 3.4 3.6 6.4 4.8 9.7-14.2 2.7-26.3 20.1-31.1 31.7-.2.5-.4 1.1-.4 1.6-.2-.1-.3-.2-.5-.2.5-6.5 1.1-13.5 3.3-19.7zm-4.7 45.6c.3-4.6.5-9.2.7-13.7 10 6 20.6 16 20.9 27.3-.6 1.5-1.1 3.1-1.4 4.6-5.7-6-13.2-10.7-20.5-13.3.1-1.6.2-3.2.3-4.9zm147.4 121.6c-2.7-13.2-9.6-26.8-21.6-30.9 2.1-2.9 4.5-5.5 6.9-8.1 4.4-4.7 10.7-11.1 17.5-11.9 5.3-.6 10 9.2 11.8 12.9 2.1 4.3 4.7 9.9 5.5 15.2-7.9 5.9-14.2 14.5-20.1 22.8zm24.8-11.9c1.7.6 3.7.2 5.2-1.8.9-1.1 1.7-2.3 2.6-3.6 1.8-.8 3.6-1.4 5.6-1.6 3.2-.3 3.3 2.3 4.2 5.1 2.3 7.4 4.7 14.7 6.9 22.1-3.6-.3-7.2-.1-10.1.3-10.1 1.2-19 5.2-26 12-2.1-3.6-4.6-7-7.4-9.8 5.8-7.9 11.5-16.2 19-22.7zm-39 4.4c1.3 2.9 2.4 6.1 3.3 9.3-3.3-.6-6.8-.8-10.6-.3-13.8 1.7-22.5 11.6-29.5 22.6-2.4-5.1-5.6-10.1-9.6-13.9 3.8-5.6 7.8-11 12.2-16.2 4.2-4.9 10-11.5 16.6-13.9 1.5.4 3 .1 4.2-.9 6.6-.5 11.2 8.2 13.4 13.3zm-37.9-10.8c-5.3 5.2-9.9 11.1-14.2 17.2-2.4-6.6-5.5-12.7-10.6-18.1-2.2-2.3-4.6-4.6-7.3-6.7 3-3.9 6.2-7.7 9.6-11.3 4.5-4.8 11-11 17.8-12.1 5.2-.8 9.9 4.9 12.7 8.6 2.5 3.4 4.7 7.3 6.2 11.4-5.4 2.7-10.2 7.1-14.2 11zm-24.2 21.1c-1.3-.1-2.7 0-4.1.2-8.1 1.1-13.9 7.9-18.7 14-2.4 3.1-4.8 6.3-7 9.7-1.1-2.5-2.3-4.9-3.7-7.3-3.8-6.6-9.6-14.4-16.3-18.4-.3-.2-.6-.3-.8-.5 2.7-3.8 5.9-7.3 9.2-10.6 4.2-4.3 10.1-10.2 16.2-11.4 1.7-.3 3.4 0 5.1.7 1 1 2.2 1.8 3.6 2.1 3.4 2.4 6.5 5.8 8.6 7.9 3.9 3.7 6.2 8.5 7.9 13.6zm-45.8-23.9c-4.1 3.6-8 7.7-11.4 12.1-2.7-4.9-6.1-9.9-10.1-13.9.4-1.2.3-2.5-.5-3.8.5-1.3 1.2-2.5 2-3.7 2.2-3.6 5-6.8 7.8-10 4.5-5.1 9.7-11.6 16.3-14 7.3-2.6 11 4.4 13.3 10.2 1.5 3.7 2.6 7.6 3.7 11.5-7.9-.2-15.7 6.8-21.1 11.6zm-22-25c-2.9 3.3-8.7 9.7-10.7 15.8-1.2-.4-2.4-.6-3.7-.8.3-10.4-2.4-20.3-4.8-30.4-.7-3.1-1.3-6.1-1.8-9.2 6.5.7 12.4 6.8 16.1 11.6 1.6 2.1 2.7 4.1 3.5 6.6.6 1.8 1 3.9 2.1 5.5-.1.3-.4.6-.7.9zm-20.5 26c1 .3 2 .4 3.2 0 4.8-1.3 9.8 4.8 12.3 7.9 3 3.7 5.7 7.8 7.9 12-5.3 2.7-9.5 8.3-12.1 14.3-4.4-11.3-8.1-22.8-11.3-34.2zm62.6 107.2c-6.2-4.6-11.8-9.8-16.9-15.5 3.6-6.4 11.4-8.5 18.3-6 4.4 1.7 8 6.8 11 10.2 2 2.3 4 4.6 6.2 6.7-4.8 1.3-9.2 4.1-13.3 8.1-1.9-1.1-3.7-2.3-5.3-3.5zm15 9.4c4.7-3.8 9-4.4 15.7-2.7 7.6 1.9 15.2 6.5 19.6 13 .2.3.4.5.6.7-12.6-1.5-24.7-5.2-35.9-11zm18.1-13.4c6.3-10.2 12.1-23.1 23.1-28.2 6-2.7 13.5-2.5 17.9 2.8 4.4 5.2 6 12.4 7.5 18.9.3 1.2 1.1 2.1 2.2 2.8-5.7 1.6-11.5 4.7-16.5 7.5-4.4 2.4-7.9 6-11.6 9.2-6-6.5-14.2-10.6-22.6-13zm27.8 25.2c-.9 0-1.9-.1-2.8-.1 4.1-2.9 7.5-6.6 11.5-9.7 4.4-3.5 10.2-5.7 15.3-7.8 8.5-3.4 19.7-4 26.4 3.2l.3.3c-15.1 9.6-32.4 14.6-50.7 14.1zm61.6-22.4c-.9.8-1.7 1.5-2.6 2.2-.2-.9-.7-1.7-1.4-2.5-7-7.5-17.2-9-26.9-7.8 7.7-7.3 13.1-17.2 21.8-23.4 4.4-3.2 9.8-3.4 14.3-1.3 1.9.9 3.3 3.6 4.4 5.2.6 1 1.1 2 1.6 3.1-1.4 3.1 1.2 7.1 4.7 7.6-4.9 6.1-10.1 11.8-15.9 16.9zm38-55.5c-4.3 10.3-9.6 20.4-15.8 29.7-.8-3.6-3.2-7.4-4.8-9.7-4.8-7-12.1-10.2-20.6-9.7-13.9.8-21.3 13.5-29.7 23.4-1.8-5.3-4.2-10.4-8-14.5-6.3-6.7-15.5-8.6-24.4-6.6-15.9 3.7-23.4 18.5-31.4 31.3-7.5-7.7-13.4-17.3-24.3-20.1-9.6-2.4-19.7 1.2-25.7 8.7-8.4-10.8-15.4-22.8-21.2-35.4 1.3-.6 2.4-1.9 2.7-3.7.9-4.7 2.7-8.9 5.9-12.4 3.5-3.8 7.1-1.5 10.1 1.4 7.9 7.5 14.7 18.2 15.1 29.3.2 5.4 8.2 6.9 10.4 2 2.5-5.6 5.8-10.9 9.3-15.9 3.3-4.8 7.7-11.4 13.2-14 2.7-1.2 5.2-1.2 7.6-.2.8 2.1 2.5 3 4.4 3 5.9 5.6 9.9 16.1 11.4 21.4 1.4 4.9 7.9 4.5 10.1.6 6.1-10.8 12.4-22.9 25.2-26.4 4.7-1.3 8.8-.9 12.4.6v.3c-.3 4.5 4.6 8.5 8.4 5.8 3.4 3.7 6 8.4 7.9 13.1 1.4 3.4 6.8 5.4 9.3 1.8 5.1-7.4 11.2-11.9 19.9-14 3.6-.9 7.5-1.3 11.2-1 .9.1 4.2.4 6.3.9.6.4 1.2.7 1.9.8 0 0 .1.1.1.1.3 3.1 2.6 4.7 5 4.9-.7 1.6-1.3 3-1.9 4.5zm13.4-39.1c-1.6.2-3.1 1.1-4 3-1.5 3.2-4.5 5.6-7 8.1-.5.5-1 1-1.5 1.6-2.3-8.3-4.9-16.6-7.9-24.6-2.2-5.8-6.5-8.4-11.5-8.9 5.4-9 11.1-17.8 20.4-22.2 3.6 3.3 8.2 6.7 10 10.8-2.3 3.1-.5 9.2 4.7 9.2h2 .5c-1.4 7.6-3.5 15.4-5.7 23zm-2.6-86.1c1 3.5 2.1 6.9 3.5 10.3 2.6 6.5 5.5 12.7 6.6 19.7.9 5.9.9 11.9.5 17.9-3.4-5.4-9.5-9.3-13.4-14.4-1.5-2-3.9-2.9-6.4-2.1-15.7 5.3-23 18.7-31 31.7-1.2-3.8-2.8-7.5-4.6-11-3.9-7.8-9.5-16.8-18.6-19-9-2.1-18.2 5.6-24.3 11-4 3.5-8 7.7-11.3 12.2-4.7-10.2-12.7-19.5-23.2-21.6-8.3-1.6-16.9 4.3-23 9.3-5.4 4.5-10.2 9.7-14.5 15.2-1.9-6-3.4-12.2-6.4-17.9-5.1-9.8-13.9-14.6-24.8-11.4-4.9 1.5-9.3 4.8-13.2 8.6-.5-1.5-.9-2.8-1.7-4.2-2-3.8-4.7-7-7.5-10.1-5.6-6.1-13.5-11.2-22-11.3-.3-3.9-.4-7.8-.5-11.6 7.1.5 13.3-2.5 16.4-10.6.2-.6.4-1.2.6-1.7 10.6 4.1 21.6 14.5 22 25.9.2 5.5 8.1 6.8 10.4 2 5.8-12 17.3-23.2 30.2-27.9 2.6 4.5 5.9 8.4 9.5 12.3 4.5 4.9 8.7 9.6 8.9 16.5.1 3.8 5.4 6.8 8.6 4.1 6.4-5.4 11.6-11.5 16-18.6 1.7-2.7 2.4-5.8 3.6-8.7.4-.8.8-1.8 1.4-2.5.1 0 .1.1.2.1 4.6 3.3 8.6 7.8 12.1 12.3 1.7 2.2 3.5 4.5 5 6.8 2.1 3.2 2.8 7.5 4.4 11 2.1 4.6 7.4 4.7 10.1.6 2.9-4.3 4.2-9.8 5.8-14.6 1-3 3-11.2 6.1-12.4.6-.2 4.2 2.8 4.9 3.4 2.7 2.3 4.8 5.1 6.8 7.9 4.2 5.8 7.6 12.1 10.8 18.4 1.8 3.6 8.1 3 9.5-.6 4.5-11.9 19-25.7 32.5-25zm-6.6-36.4c.1.4.1.7.2 1.1 1.2 8.3 2.2 16.3 3.8 24.3-8 .2-15.8 4.7-22 9.3-4.7 3.5-9.2 7.8-12.7 12.7-2-3.5-4.2-7-6.6-10.3.2-.2.3-.5.5-.7 4.6-8.9 6.3-19 10.6-28.1 2.4-5 6-9.6 11.1-11.9 2.8-1.2 5.9-1.1 8.7-.1 1 .3 1.9.8 2.8 1.3.6 1.2 2.1 2.1 3.6 2.4zm-9.7-23.7c.4-.2.7-.4 1.1-.6 2 3.3 3.7 6.8 5 10.3-3.3-1.1-6.7-1.7-10.6-1.2h-.1c1-3.2 2.3-6.2 4.6-8.5zm-31.7-36.4c1.2.8 2.6 1.1 4.1.5.3.4.6.8.9 1.3 6.6 8.7 14.2 16.5 21.2 24.9-.1.1-.1.1-.2.2-1.6.6-2.6 1.8-3.2 3.1-1.9 2.2-3.4 4.6-4.6 7.5-.5 1.2-.9 2.4-1.2 3.6-7.3-11.6-16.2-23.4-30.2-25.1 3-6.4 7.4-12.4 13.2-16zm-16.2-22.3c4.9 2.9 8.8 7.1 12.3 11.7-8.3 4.5-14.7 12.5-18.8 21.3-4.6-8.1-8.9-16.4-16.9-20.2 1.3-3.8 4.6-7.1 8.1-9.4 3.2.9 7.5-1.1 7.5-5.6v-1.2c2.7.9 5.3 2 7.8 3.4zm97.8-49c-7.8-2.1-16.3-2.2-24.4-2.1-8.9.2-18 .8-26.7 2.6-13.8 2.9-28.1 7.9-40.2 15-4 2.3-20.6 11.6-15.1 18.3-.3-.1-.6-.1-.8-.2-.1-.2-.2-.3-.2-.5-5.2-8.9-12.1-16.8-15.4-26.7-4.1-12.6-1.9-25.7-3.7-38.6-.6-4.4-4.8-6.1-8.6-4.1-.4.2-.8.4-1.1.6 2.3-3.4 4.9-6.7 7.9-9.7 8.3-8.6 18.7-15.7 29.2-21.5 9.6-5.3 19.8-9.6 30.2-12.7 6.1-1.9 13.1-3.5 19.9-3.4-10.2 7.3-19.6 15.5-28.3 24.6-5 5.3-9.9 10.7-13.4 17.1-1.7 3.2-3.2 6.4-4.8 9.7-.9 1.9-2 5-3.6 6.4-1.3 1.2-2 2.6-2 4.1-7.1 3.6-13.8 8-21 11.9-6.2 3.5 0 12.5 6.2 9.1 11.8-6.6 22.6-15.1 36.3-17.1 15.8-2.3 33.2-2.8 49.1-.9 14.6 1.7 29.2 6.8 40.5 16.3 4.4 3.7 8.1 8.3 11.5 12.8-6.6-4.7-13.5-8.8-21.5-11z" fill="#010101"/></svg>